<?xml version="1.0" encoding="UTF-8"?>
<svg id="uuid-47e37b9e-0cbf-4247-ab7f-ce78b822a7a5" xmlns="http://www.w3.org/2000/svg" viewBox="0 0 1037.81 287.44">
  <g id="uuid-b08bda52-8e0b-4fcc-ae98-5f446d753b3f">
    <path d="m276.28,218.53l13.06-73.75c3.54-20.43,4.94-43.99,6.17-54.7h35.89c-.49,8.55-.98,17.1-1.71,25.65h.79c8.73-16.84,22.28-28.52,38.88-28.52,2.38,0,4.64.07,6.9.2l-8.12,43.27c-1.59-.07-3.6-.13-5.56-.13-24.48,0-32.84,20.76-36.93,44.06l-7.75,43.93h-41.63Z"/>
    <path d="m497.56,139.94c0,49.87-31.74,81.46-73.8,81.46-30.77,0-52.68-19.97-52.68-53.26,0-45.23,29.73-80.93,73.86-80.93,32.23,0,52.62,22.52,52.62,52.74Zm-83.38,27.48c0,12.53,5.37,20.3,15.44,20.3,17.03,0,24.84-28.91,24.84-47.32,0-10.64-4.15-19.52-15.02-19.52-18.01,0-25.33,30.74-25.27,46.54Z"/>
    <path d="m505.24,218.53l16.67-94.71h-15.32l5.92-33.74h15.32l.79-4.63c6.29-36.09,33.7-55.15,71.18-55.15,14.89,0,29.06,3.85,35.59,7.57l-10.68,34.14c-5.98-2.68-15.57-5.87-27.29-5.87-20.08,0-26.13,9.73-27.59,18.93l-.73,5.03h71.54l-22.77,128.45h-41.63l16.67-94.71h-29.54l-16.67,94.71h-41.45Z"/>
    <path d="m729.76,214.94c-8.3,4.24-20.27,6.33-33.76,6.33-29.06,0-52.38-18.15-52.38-54.04,0-46.28,33.57-79.89,80.33-79.89,9.77,0,18.01,1.44,24.11,3.72l-9.89,33.88c-3.97-1.57-8.18-2.48-14.47-2.48-22.59,0-36.44,18.6-36.44,40.01,0,16.51,10.56,23.37,20.88,23.37,9.4,0,15.99-2.02,22.04-4.57l-.43,33.68Z"/>
    <path d="m843.96,211.15c-16.05,8.42-34.86,10.12-47.06,10.12-35.34,0-54.57-19.71-54.57-55.41,0-39.16,26.37-78.65,71.73-78.65,25.03,0,44.56,14.69,44.62,40.92,0,32.11-27.35,45.36-76.97,43.8.55,2.87,2.01,6.07,4.39,8.42,4.58,4.31,11.9,6.66,21.37,6.66,12.33,0,23.81-2.55,34.25-7.83l2.26,31.98Zm-34.86-91.77c-15.02,0-22.28,12.01-23.5,20.36,25.33.26,34.25-3.59,34.25-11.81,0-4.63-3.91-8.55-10.74-8.55Z"/>
    <path d="m1006.82,33.16l-23.44,131.65c-3.17,17.69-5.31,37.4-5.92,53.72h-38.09l1.1-18.86h-.49c-10.32,16.58-24.91,21.73-37.6,21.73-19.23,0-37.66-15.86-37.66-49.15,0-44.25,29.36-85.05,76-85.05,3.78,0,9.22.65,14.28,2.55l10.38-56.59h41.45Zm-57.5,91.7c-2.38-2.28-6.96-4.05-11.6-4.05-17.89,0-29.67,23.24-29.67,43.86,0,15.47,6.84,21.02,13.92,21.02,7.81,0,17.4-8.16,21.79-30.87l5.56-29.96Z"/>
    <path d="m296.46,260.22h-7.46v7.72h8.38v6.8h-16.25v-34.23h15.69v6.8h-7.82v6.4h7.46v6.5Z"/>
    <path d="m303.32,274.75v-34.23h7.16l4.82,12.29c.86,2.18,2.49,6.5,3.35,9.14h.1c-.2-2.79-.76-9.45-.76-15.89v-5.54h6.86v34.23h-7.16l-4.62-11.53c-1.07-2.64-2.64-7.16-3.25-9.7h-.1c.15,2.95.46,8.63.46,15.34v5.89h-6.86Z"/>
    <path d="m335.46,247.83h-5.94v-7.31h19.8v7.31h-5.99v26.91h-7.87v-26.91Z"/>
    <path d="m361.86,240.52v34.23h-7.87v-34.23h7.87Z"/>
    <path d="m368.92,241.03c2.29-.41,5.18-.66,7.97-.66,3.76,0,7.36.46,9.75,2.59,2.23,1.98,2.84,4.27,2.84,7.31,0,3.35-1.68,6.8-5.18,8.43v.1c2.23,1.02,3.35,3.05,3.96,6.4.61,3.4,1.62,8.23,2.29,9.55h-8.23c-.41-.91-1.22-4.47-1.68-8.07-.51-4.06-1.42-5.03-3.15-5.03h-.76v13.1h-7.82v-33.72Zm7.82,14.57h1.02c2.54,0,3.81-2.18,3.81-4.67s-.96-4.37-3.4-4.47c-.51,0-1.12.05-1.42.2v8.94Z"/>
    <path d="m410.76,260.22h-7.46v7.72h8.38v6.8h-16.25v-34.23h15.69v6.8h-7.82v6.4h7.46v6.5Z"/>
    <path d="m421.17,247.83h-5.94v-7.31h19.8v7.31h-5.99v26.91h-7.87v-26.91Z"/>
    <path d="m443,274.75v-12.49l-7.52-21.73h8.38l2.03,7.97c.56,2.13,1.07,4.62,1.47,7.06h.1c.3-2.39.71-4.82,1.22-7.21l1.62-7.82h8.12l-7.57,21.43v12.8h-7.87Z"/>
    <path d="m470.27,261.39c0-1.83,1.27-3.2,3.05-3.2s2.95,1.32,3,3.2c0,1.83-1.22,3.2-3.05,3.2s-3.05-1.37-3-3.2Z"/>
    <path d="m492.1,241.03c2.03-.41,4.82-.66,7.52-.66,4.32,0,7.62.51,10.05,2.69,2.18,1.88,3.1,4.82,3.1,7.67,0,3.96-1.27,6.8-3.25,8.79-2.23,2.13-5.79,3.05-8.43,3.05h-1.17v12.19h-7.82v-33.72Zm7.82,15.18c.3.05.61.05.91.05,3.15,0,4.16-2.34,4.16-4.82,0-2.74-1.12-4.77-3.66-4.77-.51,0-1.07.1-1.42.25v9.29Z"/>
    <path d="m533.18,260.22h-7.46v7.72h8.38v6.8h-16.25v-34.23h15.69v6.8h-7.82v6.4h7.46v6.5Z"/>
    <path d="m540.03,241.03c2.29-.41,5.18-.66,7.97-.66,3.76,0,7.36.46,9.75,2.59,2.23,1.98,2.84,4.27,2.84,7.31,0,3.35-1.68,6.8-5.18,8.43v.1c2.23,1.02,3.35,3.05,3.96,6.4.61,3.4,1.62,8.23,2.29,9.55h-8.23c-.41-.91-1.22-4.47-1.68-8.07-.51-4.06-1.42-5.03-3.15-5.03h-.76v13.1h-7.82v-33.72Zm7.82,14.57h1.02c2.54,0,3.81-2.18,3.81-4.67s-.96-4.37-3.4-4.47c-.51,0-1.12.05-1.42.2v8.94Z"/>
    <path d="m566.54,240.52h15.69v6.8h-7.82v7.41h7.36v6.5h-7.36v13.51h-7.87v-34.23Z"/>
    <path d="m604.06,260.22h-7.46v7.72h8.38v6.8h-16.25v-34.23h15.69v6.8h-7.82v6.4h7.46v6.5Z"/>
    <path d="m627.93,274.29c-.91.41-2.84.76-5.23.76-9.65,0-13.56-7.97-13.56-16.86,0-12.64,7.36-17.98,14.52-17.98,2.49,0,4.16.51,4.82.91l-1.22,6.6c-.76-.36-1.62-.66-2.95-.66-3.86,0-6.86,3.15-6.86,10.77,0,7.16,2.79,10.26,6.75,10.26.96,0,2.23-.2,3.05-.41l.66,6.6Z"/>
    <path d="m636.25,247.83h-5.94v-7.31h19.8v7.31h-5.99v26.91h-7.87v-26.91Z"/>
    <path d="m662.66,240.52v34.23h-7.87v-34.23h7.87Z"/>
    <path d="m690.89,256.87c0,12.95-4.67,18.28-11.58,18.28-8.63,0-11.38-9.14-11.38-17.62s3.55-17.42,11.83-17.42c9.29,0,11.12,10.26,11.12,16.76Zm-14.78.76c0,8.07,1.47,10.71,3.45,10.71,2.13,0,3.15-4.06,3.15-11.07,0-5.89-.81-10.36-3.2-10.36-1.93,0-3.4,3.2-3.4,10.71Z"/>
    <path d="m696.17,274.75v-34.23h7.16l4.82,12.29c.86,2.18,2.49,6.5,3.35,9.14h.1c-.2-2.79-.76-9.45-.76-15.89v-5.54h6.86v34.23h-7.16l-4.62-11.53c-1.07-2.64-2.64-7.16-3.25-9.7h-.1c.15,2.95.46,8.63.46,15.34v5.89h-6.86Z"/>
    <path d="m733.49,261.39c0-1.83,1.27-3.2,3.05-3.2s2.95,1.32,3,3.2c0,1.83-1.22,3.2-3.05,3.2s-3.05-1.37-3-3.2Z"/>
    <path d="m776.5,256.87c0,12.95-4.67,18.28-11.58,18.28-8.63,0-11.38-9.14-11.38-17.62s3.55-17.42,11.83-17.42c9.29,0,11.12,10.26,11.12,16.76Zm-14.78.76c0,8.07,1.47,10.71,3.45,10.71,2.13,0,3.15-4.06,3.15-11.07,0-5.89-.81-10.36-3.2-10.36-1.93,0-3.4,3.2-3.4,10.71Z"/>
    <path d="m781.77,241.03c2.03-.41,4.82-.66,7.52-.66,4.32,0,7.62.51,10.05,2.69,2.18,1.88,3.1,4.82,3.1,7.67,0,3.96-1.27,6.8-3.25,8.79-2.23,2.13-5.79,3.05-8.43,3.05h-1.17v12.19h-7.82v-33.72Zm7.82,15.18c.3.05.61.05.91.05,3.15,0,4.16-2.34,4.16-4.82,0-2.74-1.12-4.77-3.66-4.77-.51,0-1.07.1-1.42.25v9.29Z"/>
    <path d="m811.07,247.83h-5.94v-7.31h19.8v7.31h-5.99v26.91h-7.87v-26.91Z"/>
    <path d="m837.48,240.52v34.23h-7.87v-34.23h7.87Z"/>
    <path d="m865.56,263.98c-.15-2.74-.36-6.86-.3-10.46h-.1c-.56,3.61-1.47,7.87-1.93,9.95l-2.44,10.56h-5.69l-2.34-10.56c-.46-2.08-1.32-6.35-1.78-9.95h-.1c-.15,3.61-.41,7.72-.56,10.46l-.56,10.77h-6.65l2.64-34.23h8.23l2.18,10.97c.86,4.27,1.73,8.23,2.29,12.09h.1c.46-3.76,1.22-7.87,2.03-12.09l2.18-10.97h8.18l2.13,34.23h-6.96l-.56-10.77Z"/>
    <path d="m884.95,267.99l-1.17,6.75h-7.62l7.26-34.23h9.55l6.25,34.23h-7.62l-1.12-6.75h-5.54Zm4.93-6.04l-.86-6.5c-.25-1.93-.71-5.64-1.02-7.77h-.1c-.36,2.13-.86,5.94-1.17,7.77l-1.02,6.5h4.16Z"/>
    <path d="m903.99,240.52h7.87v27.57h8.38v6.65h-16.25v-34.23Z"/>
    <path d="m933.19,240.52v34.23h-7.87v-34.23h7.87Z"/>
    <path d="m943.8,247.83h-5.94v-7.31h19.8v7.31h-5.99v26.91h-7.87v-26.91Z"/>
    <path d="m965.63,274.75v-12.49l-7.52-21.73h8.38l2.03,7.97c.56,2.13,1.07,4.62,1.47,7.06h.1c.3-2.39.71-4.82,1.22-7.21l1.62-7.82h8.12l-7.57,21.43v12.8h-7.87Z"/>
    <circle cx="1021.81" cy="201.25" r="16" fill="#e52500"/>
    <path d="m274.87,125.33c0,51.31-41.74,93.05-93.05,93.05h-88.42s10.89-33.01,14.8-44.74c3.94-11.81,7.51-26.37,23.43-26.37h30.47v26.67l57.03-48.61s16.1-13.77,21.5-18.32c17.56-14.78,17.17-38.11,2.44-51.67,19.49,17.05,31.81,42.11,31.81,69.99Z"/>
    <path d="m240.62,107.01c-5.4,4.55-21.5,18.32-21.5,18.32l-57.03-48.61v26.67h-74.63l23.37-71.11h70.98c23.08,0,44.21,8.43,60.49,22.4.02,0,.04.03.06.04.23.21.47.41.7.62,14.73,13.56,15.12,36.89-2.44,51.67Z"/>
    <path d="m131.63,147.27c-15.92,0-19.49,14.55-23.43,26.37-3.91,11.73-14.8,44.74-14.8,44.74l-18.49,55.86H0l30.55-92.31c6.03-18.23,23.64-34.67,45.15-34.67h55.92Z"/>
    <polygon points="56.72 103.39 0 103.39 23.37 32.28 80.09 32.28 56.72 103.39" fill="#e52500"/>
  </g>
</svg>